<svg xmlns="http://www.w3.org/2000/svg" xmlns:xlink="http://www.w3.org/1999/xlink" width="1000" zoomAndPan="magnify" viewBox="0 0 750 374.999991" height="500" preserveAspectRatio="xMidYMid meet" version="1.0"><defs><g/><clipPath id="id1"><path d="M 46.125 115.027344 L 190.875 115.027344 L 190.875 259.777344 L 46.125 259.777344 Z M 46.125 115.027344 " clip-rule="nonzero"/></clipPath><clipPath id="id2"><path d="M 38.792969 125.351562 L 126 125.351562 L 126 209 L 38.792969 209 Z M 38.792969 125.351562 " clip-rule="nonzero"/></clipPath><clipPath id="id3"><path d="M 104 166 L 191.042969 166 L 191.042969 249.851562 L 104 249.851562 Z M 104 166 " clip-rule="nonzero"/></clipPath></defs><g clip-path="url(#id1)"><path fill="#dee3f5" d="M 118.5 115.027344 C 78.527344 115.027344 46.125 147.433594 46.125 187.402344 C 46.125 227.375 78.527344 259.777344 118.5 259.777344 C 158.472656 259.777344 190.875 227.375 190.875 187.402344 C 190.875 147.433594 158.472656 115.027344 118.5 115.027344 " fill-opacity="1" fill-rule="nonzero"/></g><path fill="#005ce6" d="M 92.496094 166.816406 C 93.621094 164.863281 94.167969 162.636719 94.167969 160.199219 C 94.167969 157.757812 93.621094 155.5625 92.496094 153.578125 C 91.367188 151.628906 89.84375 150.070312 87.898438 148.972656 C 85.949219 147.875 83.757812 147.328125 81.320312 147.328125 C 78.886719 147.328125 76.695312 147.875 74.746094 148.972656 C 72.796875 150.070312 71.273438 151.597656 70.148438 153.578125 C 69.023438 155.5625 68.472656 157.757812 68.472656 160.199219 C 68.472656 162.636719 69.023438 164.832031 70.148438 166.816406 C 71.273438 168.800781 72.796875 170.324219 74.746094 171.421875 C 76.695312 172.519531 78.886719 173.070312 81.320312 173.070312 C 83.757812 173.070312 85.949219 172.519531 87.898438 171.421875 C 89.84375 170.324219 91.367188 168.800781 92.496094 166.816406 Z M 92.496094 166.816406 " fill-opacity="1" fill-rule="nonzero"/><g clip-path="url(#id2)"><path fill="#005ce6" d="M 125.679688 163.949219 C 125.679688 142.722656 106.195312 125.425781 82.234375 125.425781 C 58.273438 125.425781 38.792969 142.722656 38.792969 163.949219 C 38.792969 173.863281 43.023438 183.257812 50.726562 190.453125 C 51.488281 191.15625 51.667969 192.316406 51.152344 193.230469 L 43.359375 206.773438 C 42.75 207.808594 43.785156 209.027344 44.910156 208.632812 L 67.105469 200.550781 C 67.5625 200.398438 68.046875 200.367188 68.503906 200.519531 C 72.917969 201.832031 77.546875 202.5 82.234375 202.5 C 106.195312 202.5 125.679688 185.207031 125.679688 163.949219 Z M 98.550781 185.390625 C 96.9375 186.121094 95.171875 186.488281 93.253906 186.488281 C 90.757812 186.488281 88.445312 185.910156 86.375 184.78125 C 84.273438 183.652344 81.898438 181.699219 79.222656 178.894531 C 75.839844 178.621094 72.828125 177.644531 70.148438 175.9375 C 67.46875 174.257812 65.398438 172.03125 63.878906 169.316406 C 62.386719 166.574219 61.625 163.554688 61.625 160.199219 C 61.625 156.660156 62.476562 153.425781 64.179688 150.558594 C 65.886719 147.691406 68.230469 145.4375 71.214844 143.820312 C 74.199219 142.203125 77.546875 141.378906 81.289062 141.378906 C 85.003906 141.378906 88.355469 142.203125 91.367188 143.820312 C 94.351562 145.4375 96.695312 147.664062 98.402344 150.527344 C 100.105469 153.394531 100.957031 156.597656 100.957031 160.199219 C 100.957031 163.09375 100.378906 165.75 99.222656 168.21875 C 98.066406 170.660156 96.484375 172.765625 94.414062 174.503906 C 92.371094 176.242188 89.96875 177.460938 87.257812 178.222656 C 88.261719 179.289062 89.265625 180.082031 90.242188 180.570312 C 91.214844 181.058594 92.25 181.304688 93.378906 181.304688 C 95.78125 181.304688 97.851562 180.328125 99.648438 178.375 L 102.785156 182.128906 C 101.597656 183.589844 100.167969 184.660156 98.550781 185.390625 Z M 98.550781 185.390625 " fill-opacity="1" fill-rule="nonzero"/></g><path fill="#005ce6" d="M 140.65625 209.242188 L 154.355469 209.242188 L 147.476562 193.261719 Z M 140.65625 209.242188 " fill-opacity="1" fill-rule="nonzero"/><g clip-path="url(#id3)"><path fill="#005ce6" d="M 178.679688 234.007812 C 178.164062 233.09375 178.316406 231.964844 179.105469 231.234375 C 186.808594 224.035156 191.042969 214.640625 191.042969 204.726562 C 191.042969 183.46875 171.558594 166.207031 147.597656 166.207031 C 141.386719 166.207031 135.421875 167.335938 129.820312 169.5625 C 129.269531 173.433594 128.113281 177.1875 126.410156 180.785156 C 123.972656 185.910156 120.503906 190.515625 116.089844 194.449219 C 112.585938 197.589844 108.597656 200.183594 104.246094 202.195312 C 104.183594 203.050781 104.15625 203.875 104.15625 204.726562 C 104.15625 225.988281 123.636719 243.25 147.597656 243.25 C 152.285156 243.25 156.914062 242.578125 161.328125 241.265625 C 161.785156 241.144531 162.273438 241.144531 162.726562 241.296875 L 184.921875 249.378906 C 186.046875 249.777344 187.082031 248.558594 186.476562 247.519531 Z M 160.261719 223.027344 L 156.609375 214.578125 L 138.375 214.578125 L 134.75 223.027344 L 127.777344 223.027344 L 144.1875 186.457031 L 150.855469 186.457031 L 167.355469 223.027344 Z M 160.261719 223.027344 " fill-opacity="1" fill-rule="nonzero"/></g><g fill="#1b1c1e" fill-opacity="1"><g transform="translate(217.992871, 217.814982)"><g><path d="M 20.390625 -49.46875 L 20.390625 -37.03125 L 40.453125 -37.03125 L 40.453125 -25.46875 L 20.390625 -25.46875 L 20.390625 -12 L 43.078125 -12 L 43.078125 0 L 5.421875 0 L 5.421875 -61.453125 L 43.078125 -61.453125 L 43.078125 -49.46875 Z M 20.390625 -49.46875 "/></g></g></g><g fill="#1b1c1e" fill-opacity="1"><g transform="translate(265.351462, 217.814982)"><g><path d="M 60.40625 0 L 45.4375 0 L 20.390625 -37.90625 L 20.390625 0 L 5.421875 0 L 5.421875 -61.453125 L 20.390625 -61.453125 L 45.4375 -23.375 L 45.4375 -61.453125 L 60.40625 -61.453125 Z M 60.40625 0 "/></g></g></g><g fill="#1b1c1e" fill-opacity="1"><g transform="translate(331.180788, 217.814982)"><g><path d="M 34.5 0.609375 C 28.71875 0.609375 23.414062 -0.726562 18.59375 -3.40625 C 13.78125 -6.09375 9.957031 -9.84375 7.125 -14.65625 C 4.300781 -19.476562 2.890625 -24.894531 2.890625 -30.90625 C 2.890625 -36.914062 4.300781 -42.3125 7.125 -47.09375 C 9.957031 -51.882812 13.78125 -55.617188 18.59375 -58.296875 C 23.414062 -60.984375 28.71875 -62.328125 34.5 -62.328125 C 40.269531 -62.328125 45.5625 -60.984375 50.375 -58.296875 C 55.195312 -55.617188 58.992188 -51.882812 61.765625 -47.09375 C 64.535156 -42.3125 65.921875 -36.914062 65.921875 -30.90625 C 65.921875 -24.894531 64.519531 -19.476562 61.71875 -14.65625 C 58.914062 -9.84375 55.117188 -6.09375 50.328125 -3.40625 C 45.546875 -0.726562 40.269531 0.609375 34.5 0.609375 Z M 34.5 -13.046875 C 39.394531 -13.046875 43.316406 -14.675781 46.265625 -17.9375 C 49.210938 -21.207031 50.6875 -25.53125 50.6875 -30.90625 C 50.6875 -36.332031 49.210938 -40.664062 46.265625 -43.90625 C 43.316406 -47.144531 39.394531 -48.765625 34.5 -48.765625 C 29.53125 -48.765625 25.570312 -47.160156 22.625 -43.953125 C 19.675781 -40.742188 18.203125 -36.394531 18.203125 -30.90625 C 18.203125 -25.476562 19.675781 -21.144531 22.625 -17.90625 C 25.570312 -14.664062 29.53125 -13.046875 34.5 -13.046875 Z M 34.5 -13.046875 "/></g></g></g><g fill="#1b1c1e" fill-opacity="1"><g transform="translate(399.986445, 217.814982)"><g><path d="M 36.765625 0 L 23.984375 -23.203125 L 20.390625 -23.203125 L 20.390625 0 L 5.421875 0 L 5.421875 -61.453125 L 30.546875 -61.453125 C 35.390625 -61.453125 39.519531 -60.601562 42.9375 -58.90625 C 46.351562 -57.21875 48.90625 -54.898438 50.59375 -51.953125 C 52.289062 -49.003906 53.140625 -45.722656 53.140625 -42.109375 C 53.140625 -38.023438 51.984375 -34.378906 49.671875 -31.171875 C 47.367188 -27.960938 43.972656 -25.6875 39.484375 -24.34375 L 53.671875 0 Z M 20.390625 -33.796875 L 29.671875 -33.796875 C 32.421875 -33.796875 34.476562 -34.460938 35.84375 -35.796875 C 37.21875 -37.140625 37.90625 -39.039062 37.90625 -41.5 C 37.90625 -43.832031 37.21875 -45.671875 35.84375 -47.015625 C 34.476562 -48.359375 32.421875 -49.03125 29.671875 -49.03125 L 20.390625 -49.03125 Z M 20.390625 -33.796875 "/></g></g></g><g fill="#1b1c1e" fill-opacity="1"><g transform="translate(457.061873, 217.814982)"><g><path d="M 75.03125 -61.453125 L 75.03125 0 L 60.0625 0 L 60.0625 -36.859375 L 46.3125 0 L 34.234375 0 L 20.390625 -36.9375 L 20.390625 0 L 5.421875 0 L 5.421875 -61.453125 L 23.109375 -61.453125 L 40.359375 -18.90625 L 57.4375 -61.453125 Z M 75.03125 -61.453125 "/></g></g></g><g fill="#1b1c1e" fill-opacity="1"><g transform="translate(537.422664, 217.814982)"><g><path d="M 34.5 0.609375 C 28.71875 0.609375 23.414062 -0.726562 18.59375 -3.40625 C 13.78125 -6.09375 9.957031 -9.84375 7.125 -14.65625 C 4.300781 -19.476562 2.890625 -24.894531 2.890625 -30.90625 C 2.890625 -36.914062 4.300781 -42.3125 7.125 -47.09375 C 9.957031 -51.882812 13.78125 -55.617188 18.59375 -58.296875 C 23.414062 -60.984375 28.71875 -62.328125 34.5 -62.328125 C 40.269531 -62.328125 45.5625 -60.984375 50.375 -58.296875 C 55.195312 -55.617188 58.992188 -51.882812 61.765625 -47.09375 C 64.535156 -42.3125 65.921875 -36.914062 65.921875 -30.90625 C 65.921875 -24.894531 64.519531 -19.476562 61.71875 -14.65625 C 58.914062 -9.84375 55.117188 -6.09375 50.328125 -3.40625 C 45.546875 -0.726562 40.269531 0.609375 34.5 0.609375 Z M 34.5 -13.046875 C 39.394531 -13.046875 43.316406 -14.675781 46.265625 -17.9375 C 49.210938 -21.207031 50.6875 -25.53125 50.6875 -30.90625 C 50.6875 -36.332031 49.210938 -40.664062 46.265625 -43.90625 C 43.316406 -47.144531 39.394531 -48.765625 34.5 -48.765625 C 29.53125 -48.765625 25.570312 -47.160156 22.625 -43.953125 C 19.675781 -40.742188 18.203125 -36.394531 18.203125 -30.90625 C 18.203125 -25.476562 19.675781 -21.144531 22.625 -17.90625 C 25.570312 -14.664062 29.53125 -13.046875 34.5 -13.046875 Z M 34.5 -13.046875 "/></g></g></g><g fill="#005ce6" fill-opacity="1"><g transform="translate(584.481235, 217.813928)"><g><path d="M 49.203125 10.5 L 41.328125 -0.09375 C 38.992188 0.375 36.71875 0.609375 34.5 0.609375 C 28.71875 0.609375 23.421875 -0.726562 18.609375 -3.40625 C 13.796875 -6.09375 9.972656 -9.84375 7.140625 -14.65625 C 4.304688 -19.476562 2.890625 -24.894531 2.890625 -30.90625 C 2.890625 -36.914062 4.304688 -42.3125 7.140625 -47.09375 C 9.972656 -51.882812 13.796875 -55.625 18.609375 -58.3125 C 23.421875 -61 28.71875 -62.34375 34.5 -62.34375 C 40.28125 -62.34375 45.578125 -61 50.390625 -58.3125 C 55.203125 -55.625 58.992188 -51.882812 61.765625 -47.09375 C 64.546875 -42.3125 65.9375 -36.914062 65.9375 -30.90625 C 65.9375 -25.65625 64.867188 -20.851562 62.734375 -16.5 C 60.609375 -12.15625 57.644531 -8.550781 53.84375 -5.6875 L 67.328125 10.5 Z M 18.21875 -30.90625 C 18.21875 -25.476562 19.691406 -21.144531 22.640625 -17.90625 C 25.585938 -14.664062 29.539062 -13.046875 34.5 -13.046875 C 39.40625 -13.046875 43.332031 -14.679688 46.28125 -17.953125 C 49.226562 -21.222656 50.703125 -25.539062 50.703125 -30.90625 C 50.703125 -36.332031 49.226562 -40.664062 46.28125 -43.90625 C 43.332031 -47.144531 39.40625 -48.765625 34.5 -48.765625 C 29.539062 -48.765625 25.585938 -47.160156 22.640625 -43.953125 C 19.691406 -40.742188 18.21875 -36.394531 18.21875 -30.90625 Z M 18.21875 -30.90625 "/></g></g></g><g fill="#005ce6" fill-opacity="1"><g transform="translate(653.479849, 217.813928)"><g><path d="M 42.640625 -31.515625 C 46.203125 -30.765625 49.0625 -29 51.21875 -26.21875 C 53.382812 -23.445312 54.46875 -20.28125 54.46875 -16.71875 C 54.46875 -11.582031 52.671875 -7.507812 49.078125 -4.5 C 45.484375 -1.5 40.476562 0 34.0625 0 L 5.421875 0 L 5.421875 -61.46875 L 33.09375 -61.46875 C 39.34375 -61.46875 44.234375 -60.035156 47.765625 -57.171875 C 51.296875 -54.316406 53.0625 -50.4375 53.0625 -45.53125 C 53.0625 -41.914062 52.113281 -38.910156 50.21875 -36.515625 C 48.320312 -34.117188 45.796875 -32.453125 42.640625 -31.515625 Z M 20.40625 -36.59375 L 30.203125 -36.59375 C 32.660156 -36.59375 34.546875 -37.132812 35.859375 -38.21875 C 37.171875 -39.300781 37.828125 -40.894531 37.828125 -43 C 37.828125 -45.09375 37.171875 -46.691406 35.859375 -47.796875 C 34.546875 -48.910156 32.660156 -49.46875 30.203125 -49.46875 L 20.40625 -49.46875 Z M 31.4375 -12.078125 C 33.945312 -12.078125 35.882812 -12.644531 37.25 -13.78125 C 38.625 -14.925781 39.3125 -16.578125 39.3125 -18.734375 C 39.3125 -20.898438 38.597656 -22.59375 37.171875 -23.8125 C 35.742188 -25.039062 33.773438 -25.65625 31.265625 -25.65625 L 20.40625 -25.65625 L 20.40625 -12.078125 Z M 31.4375 -12.078125 "/></g></g></g></svg>