<svg xmlns="http://www.w3.org/2000/svg" xmlns:xlink="http://www.w3.org/1999/xlink" width="500" height="268" preserveAspectRatio="xMidYMid meet" version="1.0" viewBox="0 0 375 201" zoomAndPan="magnify"><g fill="#4544A2" fill-opacity="1"><g><g><path d="M 27.53125 -64.738281 L 87.261719 -64.738281 L 87.261719 -67.074219 L 27.53125 -67.074219 L 27.53125 -114.792969 C 59.230469 -114.792969 79.253906 -112.457031 96.105469 -105.449219 L 96.105469 -117.128906 L 10.84375 -117.128906 L 10.84375 0 L 98.609375 0 L 98.609375 -11.679688 C 78.921875 -3.835938 58.730469 -2.335938 27.53125 -2.335938 Z M 27.53125 -64.738281" transform="translate(16.900686, 156.954326)"/></g></g></g><g fill="#4544A2" fill-opacity="1"><g><g><path d="M 119.296875 16.851562 C 102.945312 16.183594 90.933594 14.683594 66.742188 2.667969 C 100.609375 0.835938 117.464844 -26.363281 117.464844 -58.230469 C 117.464844 -93.4375 99.277344 -119.964844 62.902344 -119.964844 C 26.53125 -119.964844 8.34375 -93.4375 8.34375 -58.230469 C 8.34375 -25.195312 26.53125 2.835938 62.902344 2.835938 L 63.070312 2.835938 L 114.625 29.03125 Z M 25.027344 -58.230469 C 25.027344 -87.261719 34.039062 -117.628906 62.902344 -117.628906 C 91.101562 -117.628906 100.777344 -87.261719 100.777344 -58.230469 C 100.777344 -29.03125 91.101562 0.5 62.902344 0.5 C 35.371094 0.5 25.027344 -29.03125 25.027344 -58.230469 Z M 25.027344 -58.230469" transform="translate(125.51466, 156.954326)"/></g></g></g><g fill="#4544A2" fill-opacity="1"><g><g><path d="M 61.234375 0 C 87.261719 0 100.109375 -17.351562 100.109375 -33.703125 C 100.109375 -54.726562 77.253906 -59.230469 65.238281 -59.734375 L 65.238281 -60.398438 C 75.917969 -61.066406 92.269531 -67.074219 92.269531 -88.265625 C 92.269531 -102.113281 82.089844 -117.128906 57.398438 -117.128906 L 10.84375 -117.128906 L 10.84375 0 Z M 27.53125 -114.792969 L 50.222656 -114.792969 C 68.410156 -114.792969 76.75 -100.109375 76.75 -87.097656 C 76.75 -66.742188 61.066406 -61.066406 52.890625 -61.066406 L 27.53125 -61.066406 Z M 27.53125 -58.730469 L 52.890625 -58.730469 C 64.570312 -58.730469 83.425781 -53.894531 83.425781 -32.203125 C 83.425781 -18.1875 72.914062 -2.335938 52.222656 -2.335938 L 27.53125 -2.335938 Z M 27.53125 -58.730469" transform="translate(251.313337, 156.954326)"/></g></g></g><path fill="#263238" fill-opacity="1" fill-rule="nonzero" d="M 35.039062 83.042969 L 354.429688 83.042969 L 354.429688 113.640625 L 35.039062 113.640625 L 35.039062 83.042969"/><g fill="#FDFDFD" fill-opacity="1"><g><g><path d="M 1.894531 0 L 12.914062 0 L 13.160156 -0.9375 C 12.859375 -0.867188 12.523438 -0.832031 11.695312 -0.832031 L 2.867188 -0.832031 L 2.867188 -5.839844 L 10.117188 -5.839844 C 10.949219 -5.839844 11.285156 -5.800781 11.585938 -5.730469 L 11.585938 -6.703125 C 11.285156 -6.652344 10.949219 -6.617188 10.117188 -6.617188 L 2.867188 -6.617188 L 2.867188 -11.570312 L 11.394531 -11.570312 C 12.222656 -11.570312 12.558594 -11.535156 12.859375 -11.464844 L 12.597656 -12.382812 L 1.894531 -12.382812 C 1.945312 -12.082031 1.980469 -11.746094 1.980469 -10.914062 L 1.980469 -1.46875 C 1.980469 -0.636719 1.945312 -0.300781 1.894531 0 Z M 1.894531 0" transform="translate(115.953491, 102.92623)"/></g></g></g><g fill="#FDFDFD" fill-opacity="1"><g><g><path d="M 1.894531 0 L 2.972656 0 C 2.917969 -0.300781 2.867188 -0.636719 2.867188 -1.46875 L 2.867188 -10.949219 L 3.042969 -10.949219 L 13.621094 0 L 14.453125 0 L 14.453125 -10.914062 C 14.453125 -11.746094 14.488281 -12.082031 14.558594 -12.382812 L 13.480469 -12.382812 C 13.535156 -12.082031 13.570312 -11.746094 13.570312 -10.914062 L 13.570312 -1.519531 L 13.390625 -1.519531 L 2.9375 -12.382812 L 1.894531 -12.382812 C 1.945312 -12.082031 2 -11.746094 2 -10.914062 L 2 -1.46875 C 2 -0.636719 1.945312 -0.300781 1.894531 0 Z M 1.894531 0" transform="translate(132.281046, 102.92623)"/></g></g></g><g fill="#FDFDFD" fill-opacity="1"><g><g><path d="M 8.261719 0.246094 C 12.3125 0.246094 15.320312 -2.371094 15.320312 -6.191406 C 15.320312 -10.03125 12.3125 -12.632812 8.261719 -12.632812 C 4.191406 -12.632812 1.203125 -10.03125 1.203125 -6.191406 C 1.203125 -2.371094 4.191406 0.246094 8.261719 0.246094 Z M 8.261719 -0.582031 C 4.8125 -0.582031 2.085938 -2.777344 2.085938 -6.191406 C 2.085938 -9.625 4.8125 -11.816406 8.261719 -11.816406 C 11.710938 -11.816406 14.433594 -9.625 14.433594 -6.191406 C 14.433594 -2.777344 11.710938 -0.582031 8.261719 -0.582031 Z M 8.261719 -0.582031" transform="translate(150.78436, 102.92623)"/></g></g></g><g fill="#FDFDFD" fill-opacity="1"><g><g><path d="M 14.097656 0.265625 C 14.734375 0.265625 15.230469 0.0546875 15.636719 -0.390625 L 15.410156 -1.308594 C 15.019531 -0.847656 14.59375 -0.636719 14.082031 -0.636719 C 11.410156 -0.636719 13.605469 -6.050781 8.421875 -6.050781 L 8.332031 -6.050781 L 8.332031 -6.175781 L 9.816406 -6.175781 C 12.101562 -6.175781 13.640625 -7.589844 13.640625 -9.269531 C 13.640625 -11.25 11.941406 -12.382812 9.429688 -12.382812 L 1.910156 -12.382812 C 1.945312 -12.082031 1.980469 -11.746094 1.980469 -10.914062 L 1.980469 -1.46875 C 1.980469 -0.636719 1.945312 -0.320312 1.910156 0 L 2.972656 0 C 2.902344 -0.320312 2.867188 -0.636719 2.867188 -1.46875 L 2.867188 -5.75 C 3.484375 -5.890625 5.695312 -5.925781 6.421875 -5.925781 C 13.460938 -5.925781 9.890625 0.265625 14.097656 0.265625 Z M 2.867188 -6.527344 L 2.867188 -11.535156 L 9.375 -11.535156 C 11.410156 -11.535156 12.753906 -10.613281 12.753906 -9.269531 C 12.753906 -7.890625 11.394531 -6.527344 9.199219 -6.527344 Z M 2.867188 -6.527344" transform="translate(169.376124, 102.92623)"/></g></g></g><g fill="#FDFDFD" fill-opacity="1"><g><g><path d="M 1.894531 0 L 2.972656 0 C 2.902344 -0.300781 2.867188 -0.636719 2.867188 -1.46875 L 2.867188 -10.773438 L 2.953125 -10.773438 L 8.988281 0 L 9.78125 0 L 15.78125 -10.773438 L 15.902344 -10.773438 L 15.902344 -1.46875 C 15.902344 -0.636719 15.867188 -0.300781 15.796875 0 L 16.894531 0 C 16.824219 -0.300781 16.789062 -0.636719 16.789062 -1.46875 L 16.789062 -10.914062 C 16.789062 -11.746094 16.824219 -12.082031 16.894531 -12.382812 L 15.691406 -12.382812 L 11.429688 -4.742188 C 10.773438 -3.574219 10.117188 -2.386719 9.464844 -1.203125 L 9.304688 -1.203125 L 7.359375 -4.742188 L 3.113281 -12.382812 L 1.894531 -12.382812 C 1.945312 -12.082031 1.980469 -11.746094 1.980469 -10.914062 L 1.980469 -1.46875 C 1.980469 -0.636719 1.945312 -0.300781 1.894531 0 Z M 1.894531 0" transform="translate(187.17188, 102.92623)"/></g></g></g><g fill="#FDFDFD" fill-opacity="1"><g><g><path d="M 8.261719 0.246094 C 12.3125 0.246094 15.320312 -2.371094 15.320312 -6.191406 C 15.320312 -10.03125 12.3125 -12.632812 8.261719 -12.632812 C 4.191406 -12.632812 1.203125 -10.03125 1.203125 -6.191406 C 1.203125 -2.371094 4.191406 0.246094 8.261719 0.246094 Z M 8.261719 -0.582031 C 4.8125 -0.582031 2.085938 -2.777344 2.085938 -6.191406 C 2.085938 -9.625 4.8125 -11.816406 8.261719 -11.816406 C 11.710938 -11.816406 14.433594 -9.625 14.433594 -6.191406 C 14.433594 -2.777344 11.710938 -0.582031 8.261719 -0.582031 Z M 8.261719 -0.582031" transform="translate(208.010156, 102.92623)"/></g></g></g><g fill="#FDFDFD" fill-opacity="1"><g><g><path d="M 11.550781 1.875 C 12.4375 1.875 13.179688 1.519531 13.726562 1.0625 L 13.054688 0.371094 C 12.71875 0.761719 12.222656 1.007812 11.5 1.007812 C 10.578125 1.007812 9.765625 0.65625 8.933594 0.335938 L 8.933594 0.210938 C 12.648438 -0.0703125 15.320312 -2.582031 15.320312 -6.191406 C 15.320312 -10.03125 12.3125 -12.632812 8.261719 -12.632812 C 4.191406 -12.632812 1.203125 -10.03125 1.203125 -6.191406 C 1.203125 -3.203125 3.042969 -0.957031 5.785156 -0.125 L 5.785156 0.0351562 C 4.9375 0.355469 4.652344 0.691406 4.296875 1.257812 L 5.042969 1.769531 C 5.414062 1.183594 5.945312 0.707031 6.917969 0.707031 C 8.5625 0.707031 9.871094 1.875 11.550781 1.875 Z M 8.261719 -0.582031 C 4.8125 -0.582031 2.085938 -2.777344 2.085938 -6.191406 C 2.085938 -9.625 4.8125 -11.816406 8.261719 -11.816406 C 11.710938 -11.816406 14.433594 -9.625 14.433594 -6.191406 C 14.433594 -2.777344 11.710938 -0.582031 8.261719 -0.582031 Z M 8.261719 -0.582031" transform="translate(226.601924, 102.92623)"/></g></g></g><g fill="#FDFDFD" fill-opacity="1"><g><g><path d="M 1.894531 0 L 9.625 0 C 12.222656 0 14.0625 -1.238281 14.0625 -3.34375 C 14.0625 -5.34375 12.4375 -6.386719 10.3125 -6.386719 L 10.207031 -6.386719 L 10.207031 -6.492188 L 10.3125 -6.492188 C 12.082031 -6.492188 13.375 -7.800781 13.375 -9.304688 C 13.375 -11.25 11.65625 -12.382812 9.429688 -12.382812 L 1.894531 -12.382812 C 1.945312 -12.082031 1.980469 -11.746094 1.980469 -10.914062 L 1.980469 -1.46875 C 1.980469 -0.636719 1.945312 -0.300781 1.894531 0 Z M 2.867188 -6.722656 L 2.867188 -11.585938 L 9.324219 -11.585938 C 11.109375 -11.585938 12.488281 -10.792969 12.488281 -9.199219 C 12.488281 -7.605469 11.054688 -6.722656 9.269531 -6.722656 Z M 2.867188 -0.8125 L 2.867188 -6.101562 L 9.445312 -6.101562 C 11.621094 -6.101562 13.179688 -5.113281 13.179688 -3.414062 C 13.179688 -1.714844 11.675781 -0.8125 9.5 -0.8125 Z M 2.867188 -0.8125" transform="translate(245.193691, 102.92623)"/></g></g></g><path fill="none" stroke="#FFF" stroke-linecap="butt" stroke-linejoin="miter" stroke-miterlimit="4" stroke-opacity="1" stroke-width="1" d="M -0.000614404 -0.000681447 L 15.20549 -0.000681447" transform="matrix(2.258036, 0, 0, 2.018128, 35.028731, 98.544344)"/><path fill="none" stroke="#FFF" stroke-linecap="butt" stroke-linejoin="miter" stroke-miterlimit="4" stroke-opacity="1" stroke-width="1" d="M -0.00018723 -0.000681447 L 15.205917 -0.000681447" transform="matrix(2.258036, 0, 0, 2.018128, 308.723079, 98.544344)"/></svg>